<?xml version="1.0" encoding="iso-8859-1"?><!-- Generator: Adobe Illustrator 23.0.3, SVG Export Plug-In . SVG Version: 6.00 Build 0)  --><svg xmlns="http://www.w3.org/2000/svg" xmlns:xlink="http://www.w3.org/1999/xlink" viewBox="0 0 16 16" width="16px" height="16px"><g id="Layer_1" style="display:none;"></g><g id="Layer_2"><circle style="fill:none;stroke:#000000;stroke-miterlimit:10;" cx="7.5" cy="7.5" r="6"/><g><path d="M13.466,8.134c0.001-0.009,0.003-0.017,0.003-0.025C13.468,8.117,13.467,8.125,13.466,8.134z"/><path d="M1.531,8.106C1.532,8.118,1.534,8.129,1.535,8.14C1.534,8.129,1.532,8.118,1.531,8.106z"/><path d="M8.312,9.09h1.553l0.244-1.577H8.312V6.651c0-0.655,0.214-1.236,0.827-1.236h0.985V4.038C9.951,4.015,9.585,3.963,8.893,3.963c-1.444,0-2.291,0.763-2.291,2.5v1.049H5.118V9.09h1.485v4.335C6.897,13.47,7.194,13.5,7.5,13.5c0.276,0,0.546-0.025,0.812-0.061V9.09z"/></g></g></svg>